<?xml version="1.0" encoding="utf-8"?>
<!-- Generator: Adobe Illustrator 25.4.1, SVG Export Plug-In . SVG Version: 6.00 Build 0)  -->
<svg version="1.1" id="Layer_1" xmlns="http://www.w3.org/2000/svg" xmlns:xlink="http://www.w3.org/1999/xlink" x="0px" y="0px"
	 viewBox="0 0 250 250" style="enable-background:new 0 0 250 250;" xml:space="preserve">
<style type="text/css">
	.st0{fill:#020203;stroke:#1E1E1C;stroke-width:2;stroke-miterlimit:10;}
</style>
<g>
	<g>
		<path class="st0" d="M40.63,95.82c2.41-0.05,4.47,0.21,6.16,0.78c1.7,0.57,3.12,1.34,4.27,2.3s2.04,2.11,2.67,3.42
			s1.09,2.69,1.34,4.13c0.26,1.44,0.37,2.91,0.32,4.41c-0.05,1.5-0.2,2.93-0.46,4.3c-0.26,1.37-0.58,2.63-0.95,3.77
			s-0.76,2.09-1.13,2.85c-1.39,2.67-2.9,5.05-4.54,7.16c-1.63,2.11-3.31,3.95-5.03,5.55c-1.72,1.59-3.46,2.96-5.22,4.09
			c-1.76,1.13-3.46,2.06-5.1,2.78c-1.64,0.72-3.18,1.25-4.62,1.59c-1.44,0.34-2.71,0.52-3.82,0.55c-1.44,0.02-2.78-0.05-4-0.21
			c-0.49,1.46-0.96,2.82-1.4,4.07c-0.44,1.25-0.83,2.35-1.17,3.28c-0.34,0.93-0.64,1.67-0.88,2.23c-0.25,0.55-0.42,0.86-0.52,0.9
			c-0.31,0.16-0.64,0.28-0.99,0.34c-0.35,0.06-0.69,0.08-1.01,0.05c-0.32-0.02-0.6-0.08-0.85-0.18c-0.25-0.09-0.41-0.21-0.48-0.35
			c-0.02-0.05,0.04-0.37,0.2-0.98c0.16-0.6,0.37-1.41,0.66-2.41s0.62-2.19,1.02-3.56c0.4-1.37,0.85-2.85,1.34-4.43
			c-1.46-0.57-2.73-1.27-3.79-2.11c-1.06-0.84-1.97-1.73-2.73-2.67c-0.76-0.95-1.37-1.91-1.84-2.9c-0.47-0.99-0.84-1.92-1.1-2.78
			c-0.26-0.86-0.45-1.62-0.55-2.27c-0.11-0.65-0.16-1.12-0.16-1.4c0-0.54,0.13-0.93,0.41-1.15c0.27-0.23,0.57-0.3,0.9-0.25
			c0.33,0.06,0.64,0.25,0.92,0.57c0.28,0.32,0.44,0.73,0.46,1.26c0,0.4,0.13,1.07,0.39,2c0.26,0.93,0.71,1.94,1.34,3.03
			c0.64,1.09,1.49,2.16,2.57,3.21c1.07,1.05,2.42,1.89,4.06,2.53c0.64-2.06,1.29-4.18,1.96-6.37c0.67-2.2,1.34-4.35,2-6.47
			c0.66-2.11,1.29-4.12,1.88-6.02c0.59-1.9,1.12-3.58,1.58-5.03c0.46-1.45,0.83-2.63,1.12-3.53c0.28-0.9,0.44-1.39,0.46-1.48
			c0.09-0.3,0.39-0.54,0.88-0.71s1.01-0.22,1.54-0.16c0.53,0.06,0.99,0.25,1.38,0.59c0.39,0.33,0.52,0.84,0.41,1.53
			c-0.02,0.09-0.16,0.59-0.42,1.48c-0.26,0.9-0.61,2.07-1.06,3.53c-0.45,1.46-0.97,3.12-1.56,5.01c-0.59,1.89-1.22,3.88-1.88,5.97
			c-0.66,2.09-1.34,4.22-2.06,6.4c-0.71,2.17-1.39,4.26-2.06,6.27c0.61,0.05,1.24,0.07,1.88,0.07c0.64,0,1.32-0.04,2.06-0.11
			c2.06-0.21,4-0.72,5.83-1.53c1.83-0.81,3.53-1.77,5.1-2.9c1.57-1.13,3-2.38,4.29-3.74c1.29-1.36,2.42-2.69,3.42-4
			c0.99-1.31,1.82-2.53,2.49-3.67c0.67-1.13,1.17-2.06,1.51-2.8c1.56-3.49,2.52-6.49,2.87-8.98c0.35-2.49,0.31-4.59-0.12-6.29
			c-0.44-1.7-1.14-3.05-2.13-4.06c-0.98-1-2.03-1.77-3.15-2.28c-1.12-0.52-2.19-0.85-3.21-0.99c-1.02-0.14-1.77-0.19-2.27-0.14
			c-2.27,0.19-4.27,0.49-6.01,0.92c-1.74,0.42-3.25,0.92-4.55,1.47c-1.3,0.56-2.39,1.14-3.28,1.75c-0.88,0.61-1.63,1.18-2.23,1.7
			c-0.6,0.52-1.08,0.96-1.43,1.33c-0.35,0.37-0.63,0.59-0.81,0.66c-0.3,0.12-0.56,0.13-0.76,0.04c-0.2-0.09-0.33-0.27-0.39-0.53
			c-0.06-0.26-0.02-0.59,0.11-0.98c0.13-0.39,0.37-0.82,0.73-1.29c0.23-0.3,0.62-0.72,1.15-1.24c0.53-0.52,1.2-1.07,2.02-1.67
			c0.81-0.59,1.77-1.19,2.85-1.81c1.09-0.61,2.3-1.17,3.63-1.67c1.34-0.49,2.8-0.91,4.4-1.24C37.07,96.03,38.79,95.85,40.63,95.82z"
			/>
		<path class="st0" d="M61.56,127.6c0.83,0,1.5,0.16,2.02,0.46s0.92,0.67,1.19,1.1c0.27,0.42,0.45,0.86,0.52,1.31
			c0.07,0.45,0.09,0.81,0.07,1.1c-0.16,1.34-0.61,2.51-1.33,3.49c-0.72,0.98-1.56,1.81-2.53,2.48c-0.97,0.67-2,1.21-3.1,1.61
			c-1.1,0.4-2.11,0.69-3.03,0.85c0.07,0.97,0.23,1.79,0.46,2.46c0.23,0.67,0.54,1.21,0.9,1.61c0.37,0.4,0.81,0.69,1.31,0.85
			c0.51,0.16,1.06,0.23,1.65,0.18c0.97-0.07,1.92-0.37,2.87-0.88c0.95-0.52,1.85-1.16,2.73-1.93s1.67-1.6,2.41-2.48
			c0.73-0.88,1.38-1.71,1.95-2.48c0.57-0.77,1.02-1.43,1.34-2c0.33-0.57,0.52-0.91,0.57-1.02c0.12-0.35,0.34-0.61,0.67-0.76
			c0.33-0.16,0.65-0.2,0.95-0.14c0.3,0.06,0.55,0.23,0.73,0.52s0.18,0.69,0.02,1.2c-0.05,0.12-0.25,0.5-0.6,1.15
			c-0.35,0.65-0.86,1.43-1.51,2.35s-1.43,1.9-2.35,2.94c-0.92,1.04-1.96,2-3.1,2.88s-2.4,1.63-3.77,2.21
			c-1.37,0.59-2.82,0.9-4.36,0.92c-0.66,0-1.44-0.13-2.34-0.41c-0.9-0.27-1.74-0.73-2.53-1.38c-0.79-0.65-1.43-1.5-1.93-2.55
			c-0.49-1.05-0.66-2.34-0.49-3.88c0.05-0.59,0.18-1.29,0.39-2.09c0.21-0.81,0.52-1.63,0.9-2.49c0.39-0.86,0.86-1.72,1.42-2.57
			c0.55-0.85,1.22-1.61,1.99-2.28c0.77-0.67,1.64-1.22,2.62-1.65C59.23,127.85,60.34,127.62,61.56,127.6z M60.72,129.86
			c-0.49,0.02-1.01,0.29-1.54,0.8c-0.53,0.51-1.03,1.14-1.51,1.91s-0.9,1.6-1.29,2.52s-0.66,1.77-0.83,2.6
			c0.59-0.09,1.21-0.26,1.86-0.49c0.65-0.23,1.26-0.58,1.84-1.02c0.58-0.45,1.1-1.02,1.54-1.7c0.45-0.69,0.78-1.53,0.99-2.55
			c0.14-0.73,0.1-1.26-0.12-1.6C61.43,130,61.12,129.84,60.72,129.86z"/>
		<path class="st0" d="M80.66,127.78c0.69-0.05,1.37,0.06,2.06,0.32c0.4-1.32,0.88-2.71,1.42-4.14c0.54-1.44,1.13-2.85,1.77-4.25
			c0.64-1.39,1.33-2.71,2.07-3.96c0.74-1.25,1.51-2.35,2.3-3.29c0.79-0.95,1.61-1.7,2.46-2.25c0.85-0.55,1.7-0.83,2.55-0.83
			c0.95,0,1.62,0.33,2.02,0.99c0.4,0.66,0.61,1.64,0.64,2.94c0.02,0.95-0.11,2.11-0.41,3.49c-0.3,1.38-0.72,2.88-1.28,4.52
			c-0.56,1.63-1.23,3.34-2.02,5.12s-1.67,3.55-2.62,5.31c-0.95,1.76-1.99,3.46-3.12,5.1c-1.12,1.64-2.3,3.14-3.53,4.48
			c0.33,1.02,0.84,1.8,1.54,2.35c0.7,0.55,1.63,0.77,2.78,0.66c0.81-0.07,1.58-0.37,2.32-0.88c0.74-0.52,1.44-1.16,2.09-1.91
			c0.65-0.76,1.24-1.57,1.79-2.44c0.54-0.88,1.02-1.7,1.43-2.46s0.74-1.42,0.99-1.96c0.25-0.54,0.41-0.88,0.48-0.99
			c0.19-0.28,0.46-0.47,0.81-0.55s0.67-0.07,0.95,0.04c0.28,0.11,0.48,0.3,0.59,0.57c0.11,0.27,0.02,0.63-0.26,1.08
			c-0.3,0.47-0.65,1.1-1.02,1.88c-0.37,0.78-0.81,1.6-1.31,2.46c-0.49,0.86-1.05,1.74-1.65,2.62c-0.6,0.88-1.28,1.67-2.04,2.37
			c-0.76,0.7-1.6,1.26-2.53,1.7c-0.93,0.44-1.96,0.64-3.07,0.62c-0.33,0-0.74-0.04-1.24-0.11c-0.49-0.07-1.02-0.21-1.56-0.42
			c-0.54-0.21-1.1-0.52-1.67-0.92c-0.57-0.4-1.07-0.93-1.53-1.59c-1.32,1.2-2.67,2.14-4.03,2.81c-1.37,0.67-2.75,1-4.14,0.98
			c-1.39-0.02-2.49-0.25-3.28-0.69c-0.79-0.44-1.39-0.97-1.81-1.6c-0.41-0.62-0.67-1.29-0.78-1.99c-0.11-0.7-0.17-1.33-0.2-1.89
			c-0.02-0.57,0.04-1.27,0.2-2.11c0.16-0.84,0.41-1.73,0.76-2.67c0.35-0.95,0.83-1.89,1.43-2.85c0.6-0.95,1.35-1.83,2.25-2.62
			c0.9-0.79,1.95-1.46,3.15-2C77.65,128.22,79.05,127.9,80.66,127.78z M81.33,134.4c0.07-0.88,0.27-1.97,0.6-3.29
			c-0.28-0.33-0.62-0.6-1.01-0.81c-0.39-0.21-0.78-0.3-1.19-0.25c-0.81,0.09-1.53,0.35-2.18,0.78c-0.65,0.42-1.22,0.95-1.7,1.58
			c-0.49,0.63-0.9,1.31-1.24,2.07c-0.34,0.76-0.62,1.51-0.83,2.25c-0.21,0.74-0.37,1.46-0.46,2.14c-0.09,0.69-0.13,1.26-0.11,1.74
			c0.02,0.85,0.17,1.51,0.45,1.96c0.28,0.46,0.6,0.79,0.99,0.99c0.39,0.2,0.81,0.3,1.28,0.28c0.46-0.01,0.9-0.06,1.33-0.16
			c0.69-0.14,1.4-0.49,2.14-1.05c0.74-0.55,1.49-1.24,2.25-2.07c-0.21-0.81-0.35-1.71-0.42-2.73
			C81.15,136.82,81.19,135.67,81.33,134.4z M95.18,112.54c-0.54-0.35-1.17-0.23-1.89,0.37c-0.72,0.6-1.47,1.53-2.25,2.76
			c-0.78,1.24-1.55,2.73-2.32,4.47c-0.77,1.74-1.46,3.56-2.07,5.47c-0.61,1.91-1.12,3.84-1.53,5.77c-0.4,1.94-0.63,3.75-0.67,5.42
			c0.99-1.51,1.96-3.15,2.92-4.93c0.95-1.77,1.84-3.54,2.67-5.31c0.83-1.77,1.58-3.48,2.27-5.14s1.26-3.13,1.72-4.43
			c0.46-1.3,0.79-2.35,0.99-3.15C95.22,113.05,95.28,112.61,95.18,112.54z"/>
		<path class="st0" d="M107.26,127.46c0.78,0,1.43,0.11,1.96,0.32c0.53,0.21,0.96,0.47,1.29,0.79c0.33,0.32,0.59,0.66,0.76,1.05
			c0.18,0.37,0.31,0.74,0.41,1.1c0.3-0.09,0.69-0.14,1.13-0.14c0.49,0.02,0.83,0.21,0.99,0.57c0.16,0.35,0.24,0.76,0.23,1.2
			c-0.01,0.45-0.08,0.88-0.2,1.31c-0.12,0.42-0.21,0.72-0.28,0.88c-0.19,0.4-0.46,1-0.81,1.8c-0.35,0.8-0.81,1.7-1.34,2.69
			c-0.14,0.61-0.25,1.23-0.34,1.86c-0.08,0.62-0.06,1.19,0.07,1.68s0.41,0.9,0.83,1.24s1.09,0.49,1.99,0.49
			c0.64,0,1.29-0.25,1.95-0.76c0.66-0.51,1.3-1.14,1.91-1.89c0.61-0.76,1.19-1.59,1.72-2.49c0.53-0.9,1-1.77,1.42-2.57
			c0.41-0.81,0.74-1.48,0.99-2.04c0.25-0.55,0.4-0.88,0.45-0.98c0.14-0.28,0.37-0.45,0.69-0.49c0.32-0.05,0.62,0,0.92,0.14
			c0.3,0.14,0.53,0.35,0.71,0.64s0.18,0.6,0.01,0.95c-0.16,0.35-0.42,0.9-0.76,1.63c-0.34,0.73-0.78,1.54-1.29,2.42
			c-0.52,0.88-1.12,1.79-1.79,2.71c-0.67,0.92-1.41,1.75-2.21,2.48c-0.81,0.73-1.68,1.33-2.64,1.79c-0.95,0.46-1.96,0.66-3.03,0.59
			c-0.76-0.05-1.56-0.33-2.41-0.83c-0.85-0.51-1.58-1.19-2.2-2.04c-0.88,1.06-1.83,1.94-2.87,2.64c-1.04,0.7-2.16,1.07-3.36,1.12
			c-0.61,0.02-1.27-0.04-1.96-0.19c-0.7-0.16-1.34-0.45-1.93-0.88c-0.59-0.44-1.1-1.05-1.51-1.82c-0.41-0.78-0.66-1.78-0.73-3
			c-0.07-1.51,0.18-3.07,0.76-4.71c0.58-1.63,1.38-3.12,2.41-4.49c1.02-1.36,2.24-2.49,3.63-3.38
			C104.22,127.93,105.7,127.48,107.26,127.46z M107.04,139.39c0.05-1.18,0.2-2.28,0.46-3.29s0.63-1.92,1.1-2.73
			c-0.07-0.02-0.11-0.07-0.11-0.14c0-0.16,0.03-0.44,0.09-0.81c0.06-0.37,0.08-0.76,0.05-1.15c-0.02-0.39-0.14-0.73-0.35-1.02
			c-0.21-0.3-0.58-0.47-1.1-0.52c-0.54-0.02-1.07,0.11-1.59,0.39c-0.52,0.28-1.02,0.67-1.51,1.17c-0.49,0.49-0.93,1.07-1.34,1.74
			c-0.42,0.66-0.77,1.36-1.06,2.09c-0.3,0.73-0.54,1.47-0.73,2.21c-0.19,0.74-0.28,1.45-0.28,2.11c-0.02,0.57-0.01,1.17,0.04,1.81
			c0.05,0.64,0.17,1.22,0.37,1.75c0.2,0.53,0.48,0.96,0.85,1.29c0.37,0.33,0.86,0.47,1.47,0.42c0.83-0.07,1.56-0.42,2.21-1.05
			s1.21-1.39,1.68-2.28c-0.09-0.33-0.17-0.66-0.21-0.98C107.04,140.09,107.02,139.75,107.04,139.39z"/>
		<path class="st0" d="M136.98,109.43c0.71-0.21,1.34-0.23,1.89-0.07c0.56,0.16,1,0.47,1.33,0.9c0.33,0.44,0.52,1,0.59,1.7
			c0.06,0.7-0.04,1.48-0.3,2.35c-0.49,1.58-1.13,3.13-1.89,4.64c-0.77,1.51-1.62,2.97-2.55,4.37c-0.93,1.41-1.92,2.76-2.96,4.06
			c-1.04,1.3-2.08,2.52-3.12,3.67c-1.04,1.14-2.04,2.2-3.01,3.17s-1.84,1.83-2.62,2.59c0,0.07-0.01,0.13-0.01,0.2
			c-0.01,0.06-0.02,0.13-0.02,0.2c-0.16,1.53-0.13,2.78,0.11,3.74c0.23,0.95,0.55,1.7,0.95,2.23c0.4,0.53,0.84,0.89,1.33,1.08
			c0.49,0.19,0.89,0.3,1.22,0.32c0.92,0.05,1.82-0.18,2.71-0.69c0.88-0.51,1.72-1.16,2.52-1.95c0.79-0.79,1.53-1.66,2.21-2.6
			c0.69-0.95,1.29-1.83,1.81-2.66c0.52-0.83,0.95-1.53,1.28-2.13c0.33-0.59,0.55-0.93,0.67-1.02c0.16-0.12,0.37-0.19,0.6-0.21
			c0.23-0.02,0.45,0.03,0.66,0.16c0.2,0.13,0.34,0.33,0.42,0.6c0.08,0.28,0.04,0.66-0.13,1.15c-0.05,0.12-0.24,0.53-0.59,1.24
			c-0.34,0.71-0.81,1.55-1.42,2.52c-0.6,0.97-1.32,1.99-2.16,3.05c-0.84,1.06-1.77,2.02-2.81,2.87s-2.17,1.51-3.4,1.99
			c-1.23,0.47-2.52,0.6-3.86,0.39c-1.58-0.26-2.81-0.95-3.68-2.07c-0.88-1.12-1.46-2.53-1.74-4.22c-0.28-1.69-0.3-3.58-0.05-5.68
			c0.25-2.1,0.71-4.25,1.38-6.44c0.67-2.2,1.53-4.36,2.57-6.5c1.04-2.13,2.2-4.1,3.47-5.88c1.27-1.78,2.64-3.29,4.11-4.54
			C133.94,110.68,135.44,109.85,136.98,109.43z M135.45,113.93c-0.73,0.85-1.58,1.87-2.55,3.05c-0.97,1.18-1.94,2.54-2.92,4.09
			c-0.98,1.55-1.91,3.28-2.78,5.19c-0.88,1.91-1.58,4.03-2.13,6.37c0.71-0.76,1.5-1.64,2.37-2.66c0.88-1.02,1.82-2.23,2.83-3.63
			c1.02-1.41,2.1-3.02,3.26-4.85c1.16-1.83,2.37-3.94,3.65-6.32c0.35-0.66,0.55-1.21,0.6-1.65c0.05-0.44-0.01-0.73-0.2-0.87
			c-0.18-0.14-0.45-0.12-0.81,0.07C136.41,112.91,135.97,113.31,135.45,113.93z"/>
		<path class="st0" d="M167.62,95.82c2.41-0.05,4.47,0.21,6.16,0.78c1.7,0.57,3.12,1.34,4.27,2.3c1.14,0.97,2.04,2.11,2.67,3.42
			s1.09,2.69,1.34,4.13c0.26,1.44,0.37,2.91,0.32,4.41c-0.05,1.5-0.2,2.93-0.46,4.3c-0.26,1.37-0.58,2.63-0.95,3.77
			c-0.37,1.14-0.76,2.09-1.13,2.85c-1.39,2.67-2.9,5.05-4.54,7.16c-1.63,2.11-3.31,3.95-5.03,5.55c-1.72,1.59-3.46,2.96-5.22,4.09
			c-1.76,1.13-3.46,2.06-5.1,2.78c-1.64,0.72-3.18,1.25-4.62,1.59c-1.44,0.34-2.71,0.52-3.82,0.55c-1.44,0.02-2.78-0.05-4-0.21
			c-0.49,1.46-0.96,2.82-1.4,4.07c-0.44,1.25-0.83,2.35-1.17,3.28c-0.34,0.93-0.64,1.67-0.88,2.23c-0.25,0.55-0.42,0.86-0.52,0.9
			c-0.31,0.16-0.64,0.28-0.99,0.34c-0.35,0.06-0.69,0.08-1.01,0.05c-0.32-0.02-0.6-0.08-0.85-0.18c-0.25-0.09-0.41-0.21-0.48-0.35
			c-0.02-0.05,0.04-0.37,0.2-0.98s0.37-1.41,0.66-2.41c0.28-1,0.62-2.19,1.02-3.56c0.4-1.37,0.85-2.85,1.34-4.43
			c-1.46-0.57-2.73-1.27-3.79-2.11c-1.06-0.84-1.97-1.73-2.73-2.67c-0.76-0.95-1.37-1.91-1.84-2.9c-0.47-0.99-0.84-1.92-1.1-2.78
			c-0.26-0.86-0.45-1.62-0.55-2.27c-0.11-0.65-0.16-1.12-0.16-1.4c0-0.54,0.13-0.93,0.41-1.15c0.27-0.23,0.57-0.3,0.9-0.25
			c0.33,0.06,0.64,0.25,0.92,0.57c0.28,0.32,0.44,0.73,0.46,1.26c0,0.4,0.13,1.07,0.39,2c0.26,0.93,0.71,1.94,1.34,3.03
			c0.64,1.09,1.49,2.16,2.57,3.21c1.07,1.05,2.42,1.89,4.06,2.53c0.64-2.06,1.29-4.18,1.96-6.37c0.67-2.2,1.34-4.35,2-6.47
			c0.66-2.11,1.29-4.12,1.88-6.02c0.59-1.9,1.12-3.58,1.58-5.03c0.46-1.45,0.83-2.63,1.12-3.53s0.44-1.39,0.46-1.48
			c0.09-0.3,0.39-0.54,0.88-0.71s1.01-0.22,1.54-0.16c0.53,0.06,0.99,0.25,1.38,0.59c0.39,0.33,0.52,0.84,0.41,1.53
			c-0.02,0.09-0.16,0.59-0.42,1.48c-0.26,0.9-0.61,2.07-1.06,3.53c-0.45,1.46-0.97,3.12-1.56,5.01c-0.59,1.89-1.22,3.88-1.88,5.97
			c-0.66,2.09-1.34,4.22-2.06,6.4c-0.71,2.17-1.39,4.26-2.06,6.27c0.61,0.05,1.24,0.07,1.88,0.07c0.64,0,1.32-0.04,2.06-0.11
			c2.06-0.21,4-0.72,5.83-1.53c1.83-0.81,3.53-1.77,5.1-2.9c1.57-1.13,3-2.38,4.29-3.74c1.29-1.36,2.42-2.69,3.42-4
			c0.99-1.31,1.82-2.53,2.49-3.67c0.67-1.13,1.17-2.06,1.51-2.8c1.56-3.49,2.52-6.49,2.87-8.98c0.35-2.49,0.31-4.59-0.12-6.29
			c-0.44-1.7-1.14-3.05-2.13-4.06c-0.98-1-2.03-1.77-3.15-2.28c-1.12-0.52-2.19-0.85-3.21-0.99c-1.02-0.14-1.77-0.19-2.27-0.14
			c-2.27,0.19-4.27,0.49-6.01,0.92c-1.74,0.42-3.25,0.92-4.55,1.47c-1.3,0.56-2.39,1.14-3.28,1.75c-0.88,0.61-1.63,1.18-2.23,1.7
			c-0.6,0.52-1.08,0.96-1.43,1.33c-0.35,0.37-0.63,0.59-0.81,0.66c-0.3,0.12-0.56,0.13-0.76,0.04c-0.2-0.09-0.33-0.27-0.39-0.53
			c-0.06-0.26-0.02-0.59,0.11-0.98c0.13-0.39,0.37-0.82,0.73-1.29c0.23-0.3,0.62-0.72,1.15-1.24c0.53-0.52,1.2-1.07,2.02-1.67
			c0.81-0.59,1.77-1.19,2.85-1.81c1.09-0.61,2.3-1.17,3.63-1.67c1.34-0.49,2.8-0.91,4.4-1.24
			C164.05,96.03,165.77,95.85,167.62,95.82z"/>
		<path class="st0" d="M194.39,109.43c0.71-0.21,1.34-0.23,1.89-0.07c0.56,0.16,1,0.47,1.33,0.9c0.33,0.44,0.52,1,0.59,1.7
			c0.06,0.7-0.04,1.48-0.3,2.35c-0.49,1.58-1.13,3.13-1.89,4.64c-0.77,1.51-1.62,2.97-2.55,4.37c-0.93,1.41-1.92,2.76-2.96,4.06
			c-1.04,1.3-2.08,2.52-3.12,3.67c-1.04,1.14-2.04,2.2-3.01,3.17s-1.84,1.83-2.62,2.59c0,0.07-0.01,0.13-0.01,0.2
			c-0.01,0.06-0.02,0.13-0.02,0.2c-0.16,1.53-0.13,2.78,0.11,3.74c0.23,0.95,0.55,1.7,0.95,2.23s0.84,0.89,1.33,1.08
			c0.49,0.19,0.89,0.3,1.22,0.32c0.92,0.05,1.82-0.18,2.71-0.69c0.88-0.51,1.72-1.16,2.52-1.95c0.79-0.79,1.53-1.66,2.21-2.6
			c0.69-0.95,1.29-1.83,1.81-2.66c0.52-0.83,0.95-1.53,1.28-2.13c0.33-0.59,0.55-0.93,0.67-1.02c0.16-0.12,0.37-0.19,0.6-0.21
			c0.23-0.02,0.45,0.03,0.66,0.16c0.2,0.13,0.34,0.33,0.42,0.6c0.08,0.28,0.04,0.66-0.13,1.15c-0.05,0.12-0.24,0.53-0.59,1.24
			c-0.34,0.71-0.81,1.55-1.42,2.52c-0.6,0.97-1.32,1.99-2.16,3.05c-0.84,1.06-1.77,2.02-2.81,2.87c-1.04,0.85-2.17,1.51-3.4,1.99
			c-1.23,0.47-2.52,0.6-3.86,0.39c-1.58-0.26-2.81-0.95-3.68-2.07c-0.88-1.12-1.46-2.53-1.74-4.22c-0.28-1.69-0.3-3.58-0.05-5.68
			c0.25-2.1,0.71-4.25,1.38-6.44c0.67-2.2,1.53-4.36,2.57-6.5c1.04-2.13,2.2-4.1,3.47-5.88c1.27-1.78,2.64-3.29,4.11-4.54
			C191.36,110.68,192.86,109.85,194.39,109.43z M192.86,113.93c-0.73,0.85-1.58,1.87-2.55,3.05c-0.97,1.18-1.94,2.54-2.92,4.09
			c-0.98,1.55-1.91,3.28-2.78,5.19c-0.88,1.91-1.58,4.03-2.13,6.37c0.71-0.76,1.5-1.64,2.37-2.66c0.88-1.02,1.82-2.23,2.83-3.63
			c1.02-1.41,2.1-3.02,3.26-4.85c1.16-1.83,2.37-3.94,3.65-6.32c0.35-0.66,0.55-1.21,0.6-1.65c0.05-0.44-0.01-0.73-0.2-0.87
			c-0.18-0.14-0.45-0.12-0.81,0.07C193.83,112.91,193.39,113.31,192.86,113.93z"/>
		<path class="st0" d="M205.05,127.6c0.83,0,1.5,0.16,2.02,0.46s0.92,0.67,1.19,1.1c0.27,0.42,0.45,0.86,0.52,1.31
			c0.07,0.45,0.09,0.81,0.07,1.1c-0.16,1.34-0.61,2.51-1.33,3.49c-0.72,0.98-1.56,1.81-2.53,2.48c-0.97,0.67-2,1.21-3.1,1.61
			c-1.1,0.4-2.11,0.69-3.03,0.85c0.07,0.97,0.23,1.79,0.46,2.46c0.23,0.67,0.54,1.21,0.9,1.61s0.81,0.69,1.31,0.85
			c0.51,0.16,1.06,0.23,1.65,0.18c0.97-0.07,1.92-0.37,2.87-0.88s1.85-1.16,2.73-1.93c0.88-0.77,1.67-1.6,2.41-2.48
			c0.73-0.88,1.38-1.71,1.95-2.48c0.57-0.77,1.02-1.43,1.34-2c0.33-0.57,0.52-0.91,0.57-1.02c0.12-0.35,0.34-0.61,0.67-0.76
			c0.33-0.16,0.65-0.2,0.95-0.14c0.3,0.06,0.55,0.23,0.73,0.52c0.18,0.28,0.18,0.69,0.02,1.2c-0.05,0.12-0.25,0.5-0.6,1.15
			s-0.86,1.43-1.51,2.35s-1.43,1.9-2.35,2.94c-0.92,1.04-1.96,2-3.1,2.88c-1.14,0.88-2.4,1.63-3.77,2.21
			c-1.37,0.59-2.82,0.9-4.36,0.92c-0.66,0-1.44-0.13-2.34-0.41c-0.9-0.27-1.74-0.73-2.53-1.38c-0.79-0.65-1.43-1.5-1.93-2.55
			s-0.66-2.34-0.49-3.88c0.05-0.59,0.18-1.29,0.39-2.09c0.21-0.81,0.52-1.63,0.9-2.49c0.39-0.86,0.86-1.72,1.42-2.57
			c0.55-0.85,1.22-1.61,1.99-2.28c0.77-0.67,1.64-1.22,2.62-1.65C202.72,127.85,203.82,127.62,205.05,127.6z M204.21,129.86
			c-0.49,0.02-1.01,0.29-1.54,0.8c-0.53,0.51-1.03,1.14-1.51,1.91c-0.47,0.77-0.9,1.6-1.29,2.52c-0.39,0.91-0.66,1.77-0.83,2.6
			c0.59-0.09,1.21-0.26,1.86-0.49c0.65-0.23,1.26-0.58,1.84-1.02c0.58-0.45,1.1-1.02,1.54-1.7c0.45-0.69,0.78-1.53,0.99-2.55
			c0.14-0.73,0.1-1.26-0.12-1.6C204.92,130,204.6,129.84,204.21,129.86z"/>
		<path class="st0" d="M230.63,125.76c0-0.28,0.11-0.42,0.34-0.42c0.23,0,0.47,0.09,0.74,0.27c0.27,0.18,0.52,0.4,0.74,0.67
			c0.23,0.28,0.34,0.52,0.34,0.73c0.02,0.95-0.25,1.96-0.81,3.05c-0.57,1.09-1.33,2.21-2.28,3.38c-0.95,1.17-2.04,2.36-3.26,3.58
			c-1.22,1.22-2.46,2.42-3.74,3.6c0.95,0.9,2.02,1.61,3.22,2.14s2.57,0.75,4.07,0.66c0.81-0.05,1.62-0.3,2.44-0.78
			c0.83-0.47,1.63-1.06,2.39-1.77c0.77-0.71,1.5-1.48,2.2-2.32c0.7-0.84,1.32-1.64,1.88-2.41c0.55-0.77,1.02-1.45,1.42-2.04
			c0.39-0.59,0.66-1,0.83-1.24c0.35-0.49,0.73-0.78,1.12-0.87c0.39-0.08,0.71-0.03,0.98,0.16s0.41,0.49,0.46,0.88
			c0.05,0.4-0.09,0.84-0.42,1.31c-0.07,0.09-0.29,0.45-0.66,1.08c-0.37,0.63-0.85,1.38-1.45,2.27c-0.6,0.88-1.31,1.84-2.13,2.85
			c-0.81,1.02-1.71,1.95-2.69,2.81c-0.98,0.86-2.04,1.59-3.17,2.2c-1.13,0.6-2.3,0.94-3.5,1.01c-1.77,0.09-3.42-0.23-4.96-0.98
			c-1.53-0.74-2.94-1.72-4.22-2.92c-1.02,0.95-1.97,1.84-2.87,2.71c-0.9,0.86-1.68,1.67-2.35,2.42c-0.67,0.76-1.2,1.44-1.59,2.06
			s-0.57,1.14-0.52,1.59c0.02,0.19-0.09,0.29-0.35,0.3c-0.26,0.01-0.54-0.04-0.85-0.14c-0.3-0.11-0.59-0.26-0.87-0.46
			c-0.27-0.2-0.41-0.42-0.41-0.66c-0.02-0.66,0.16-1.4,0.55-2.21c0.39-0.81,0.93-1.67,1.63-2.55s1.5-1.81,2.41-2.78
			c0.91-0.97,1.88-1.95,2.93-2.94c-0.88-1.16-1.63-2.36-2.25-3.61c-0.63-1.25-1.1-2.44-1.43-3.56c-0.33-1.12-0.49-2.12-0.49-3
			s0.18-1.51,0.53-1.91c0.07-0.07,0.2-0.13,0.37-0.2c0.18-0.06,0.37-0.09,0.59-0.09c0.21,0,0.41,0.05,0.6,0.14
			c0.19,0.09,0.32,0.26,0.39,0.49c0.02,0.14,0.12,0.52,0.28,1.15c0.16,0.63,0.41,1.39,0.73,2.3c0.32,0.91,0.72,1.91,1.2,3
			c0.48,1.09,1.07,2.13,1.75,3.15c1.25-1.18,2.48-2.35,3.68-3.49c1.2-1.14,2.28-2.23,3.24-3.28c0.95-1.04,1.73-2.01,2.32-2.92
			C230.3,127.28,230.61,126.46,230.63,125.76z"/>
	</g>
</g>
</svg>
